<?xml version="1.0" encoding="utf-8"?>
<!-- Generator: Adobe Illustrator 27.5.0, SVG Export Plug-In . SVG Version: 6.00 Build 0)  -->
<svg version="1.1" xmlns="http://www.w3.org/2000/svg" xmlns:xlink="http://www.w3.org/1999/xlink" x="0px" y="0px"
	 viewBox="0 0 1122 1122" style="enable-background:new 0 0 1122 1122;" xml:space="preserve">
<g id="Bg">
	<g>
		<g>
			<rect style="fill:#FFFFFF;" width="1122" height="1122"/>
		</g>
	</g>
</g>
<g id="Object">
	<g>
		<path style="fill:#AAD4C8;" d="M464.812,932.832h10.382h26.793c22.68,0,41.717-15.508,47.218-36.47H417.596
			C423.098,917.324,442.132,932.832,464.812,932.832z"/>
		<path style="fill:#616E7D;" d="M417.596,896.362h131.608c1.045-3.973,1.652-8.104,1.652-12.4V506.598
			c55.089-25.525,93.395-81.155,93.395-145.864c0-65.229-38.884-121.25-94.672-146.496v146.496h-74.386h-57.945V214.238
			c-55.812,25.246-94.7,81.267-94.7,146.496c0,64.709,38.304,120.339,93.395,145.864v377.364
			C415.944,888.259,416.574,892.389,417.596,896.362z M454.185,518.278H514.2V855.36c0,7.735-6.27,14.002-14.005,14.002H468.18
			c-7.729,0-13.995-6.267-13.995-14.002V518.278z"/>
		<polygon style="fill:#616E7D;" points="739.23,563.282 755.089,563.282 755.089,295.157 760.754,278.665 760.754,210.955 
			739.23,190.281 738.065,189.168 716.084,210.955 716.084,278.665 721.074,294.622 721.074,563.282 		"/>
		<path style="fill:#AAD4C8;" d="M692.245,841.549v50.565c0,22.471,20.402,40.718,45.614,40.718l1.371-0.127
			c24.541-0.687,44.226-18.534,44.226-40.591v-50.565v-50.135V622.226h15.995v-58.944h-44.362H739.23h-18.156h-44.386v58.944h15.557
			v169.188V841.549z M747.818,624.804h15.86V875.35h-15.86V624.804z M711.811,624.804h15.859V875.35h-15.859V624.804z"/>
		<path style="fill:#82BFAB;" d="M468.18,869.361h32.015c7.735,0,14.005-6.267,14.005-14.002V518.278h-60.015V855.36
			C454.185,863.095,460.451,869.361,468.18,869.361z"/>
		<rect x="711.811" y="624.804" style="fill:#616E7D;" width="15.859" height="250.546"/>
		<rect x="747.818" y="624.804" style="fill:#616E7D;" width="15.86" height="250.546"/>
	</g>
</g>
</svg>
